<svg xmlns="http://www.w3.org/2000/svg" width="145.145" height="172.724" viewBox="0 0 145.145 172.724">
  <path id="Icon_awesome-apple" data-name="Icon awesome-apple" d="M121.634,93.525c-.077-14.152,6.324-24.834,19.281-32.7-7.25-10.373-18.2-16.08-32.662-17.2-13.689-1.08-28.651,7.982-34.127,7.982-5.784,0-19.049-7.6-29.461-7.6C23.148,44.359.281,61.172.281,95.376a96.111,96.111,0,0,0,5.553,31.312c4.936,14.152,22.751,48.857,41.338,48.279,9.717-.231,16.581-6.9,29.23-6.9,12.263,0,18.625,6.9,29.461,6.9,18.741-.27,34.86-31.813,39.564-46-25.142-11.838-23.792-34.705-23.792-35.438ZM99.808,30.207c10.527-12.494,9.563-23.87,9.255-27.957C99.77,2.79,89.011,8.574,82.88,15.708c-6.748,7.635-10.72,17.083-9.872,27.726,10.065.771,19.242-4.4,26.8-13.227Z" transform="translate(-0.281 -2.25)"/>
</svg>
