<svg xmlns="http://www.w3.org/2000/svg" width="167.303" height="172.724" viewBox="0 0 167.303 172.724">
  <path id="Icon_awesome-amazon" data-name="Icon awesome-amazon" d="M96.946,52.641c-18.776.694-65.35,5.976-65.35,45.3,0,42.217,53.321,43.952,70.747,16.656,2.506,3.933,13.648,14.458,17.465,18.043l21.9-21.59s-12.453-9.754-12.453-20.357V33.98c0-9.754-9.446-31.73-43.3-31.73-33.928,0-51.933,21.2-51.933,40.212l28.337,2.622C68.647,26,83.259,26,83.259,26c15.692-.039,13.687,11.489,13.687,26.641Zm0,33.465c0,30.844-32.463,26.217-32.463,6.631,0-18.2,19.47-21.86,32.463-22.284Zm52.434,63.036C146.411,153,122.392,174.974,82.1,174.974S10.97,147.407,1.524,136.034c-2.622-2.969.386-4.357,2.12-3.2C31.9,149.99,76.05,178.251,147.26,144.516,150.151,143.089,152.387,145.287,149.38,149.142Zm15.345.848a32.134,32.134,0,0,1-8.174,11.952c-2.12,1.735-3.663,1.041-2.506-1.465s7.441-17.928,4.9-21.2c-2.506-3.2-14.265-1.658-18.506-1.234-4.164.386-5.012.771-5.4-.116-.887-2.2,8.366-5.976,14.458-6.747,6.053-.694,15.807-.308,17.735,2.2C168.657,135.34,167.231,143.822,164.725,149.99Z" transform="translate(-0.494 -2.25)"/>
</svg>
