<?xml version="1.0" encoding="UTF-8"?>
<svg id="SVGRoot" width="500" height="240.27" version="1.1" viewBox="0 0 500 240.27043" xmlns="http://www.w3.org/2000/svg" xmlns:cc="http://creativecommons.org/ns#" xmlns:dc="http://purl.org/dc/elements/1.1/" xmlns:rdf="http://www.w3.org/1999/02/22-rdf-syntax-ns#"><metadata><rdf:RDF><cc:Work rdf:about=""><dc:format>image/svg+xml</dc:format><dc:type rdf:resource="http://purl.org/dc/dcmitype/StillImage"/><dc:title/></cc:Work></rdf:RDF></metadata><g transform="translate(-151.07 -144.15)"><path d="m553.71 176.46c-9.8332-32.774-75.01-42.179-145.57-20.967-3.3274 0.96533-6.5927 2.0455-9.8364 3.1629 63.097-14.626 117.92-4.9973 126.58 23.937 9.557 31.704-39.917 74.59-110.48 95.769-1.6264 0.47491-3.2032 0.9343-4.808 1.3875l32.871-113.59-0.14892 0.0218 0.0837-0.0218-8.6196 0.59287c-16.116 1.5954-33.28 4.96-50.824 10.224-70.571 21.203-119.8 64.934-109.93 97.74 9.8332 32.765 75.028 42.145 145.6 20.939 3.3212-0.99636 6.6052-2.061 9.8364-3.135-63.112 14.61-117.93 4.9849-126.61-23.925-9.5415-31.738 39.932-74.618 110.52-95.809 1.4868-0.44697 2.9704-0.87531 4.4417-1.2943l-32.433 113.48 8.6103-0.56492c16.131-1.6047 33.274-4.9911 50.811-10.24 70.555-21.191 119.76-64.95 109.91-97.709z" fill="#013c81" stroke-width="3.1039"/><g stroke-width="2.0233"><path d="m162.23 347.86c5.1757-0.54831 10.617-0.82147 16.237-0.82147 9.7262 0 17.31 1.1513 22.216 3.723 5.0847 2.4624 8.0286 6.1287 8.0286 11.331 0 7.2214-4.9086 13.737-12.312 17.403-6.9583 3.4498-15.792 4.9289-28.819 4.9289-7.2274 0-13.474-0.38444-16.507-0.71626zm3.6582 29.937c1.5175 0.1619 3.3911 0.21651 5.6209 0.21651 6.9583 0 13.115-1.475 17.043-4.2672 4.1034-2.8448 6.2441-6.7317 6.2441-11.383 0-5.8576-5.1758-9.0322-15.614-9.0322-2.4988 0-4.3724 0.11131-5.7099 0.27518z"/><path d="m244.4 374.56-7.0473 9.5765h-13.741l29.355-36.886h16.506l6.9583 36.886h-13.474l-1.2484-9.5765zm16.774-6.0195-1.1614-7.9356c-0.26709-2.0254-0.53619-4.9815-0.80126-7.2254h-0.26708c-1.5175 2.2439-3.2131 5.0928-4.8176 7.2254l-5.89 7.9356z"/><path d="m302.57 384.14 11.42-36.886h15.08l7.9416 14.064c2.4078 4.7083 4.0143 8.5385 5.4408 12.591h0.2691c0.26708-3.7796 1.1574-7.8284 2.7659-13.247l4.1034-13.409h12.045l-11.424 36.886h-13.291l-8.3888-14.72c-2.6769-5.0341-4.2834-8.3726-5.888-12.86h-0.26708c-0.62523 3.6117-2.0557 8.8097-3.8383 14.665l-4.0123 12.917h-11.956z"/><path d="m398.22 374.56-7.0453 9.5765h-13.741l29.355-36.886h16.504l6.9583 36.886h-13.469l-1.2504-9.5765zm16.776-6.0195-1.1614-7.9356c-0.26507-2.0254-0.53213-4.9815-0.80124-7.2254h-0.2691c-1.5175 2.2439-3.211 5.0928-4.8196 7.2254l-5.8859 7.9356z"/><path d="m480.66 347.25-4.4615 14.339h21.771l4.4595-14.339h12.937l-11.42 36.886h-12.85l4.7306-15.541h-21.862l-4.7265 15.541h-12.848l11.42-36.886z"/><path d="m574.52 368.44h-21.322l-2.768 8.9756h24.001l-2.1427 6.7317h-36.849l11.424-36.886h35.599l-2.1427 6.7317h-22.662l-2.4968 7.8263h21.502z"/><path d="m612.53 347.96c4.0123-0.60295 10.08-0.93074 16.061-0.93074 5.7079 0 11.598 0.4937 15.792 2.1346 3.9253 1.4224 6.6912 3.7209 6.6912 7.1687 0 5.4732-5.8879 8.8663-13.652 10.4v0.1639c3.5712 0.98335 5.1777 3.3932 5.7099 6.7297 0.80327 4.162 1.2504 8.9776 2.3208 10.507h-13.204c-0.53822-0.98335-1.1594-4.158-1.6956-8.7004-0.62521-4.4878-3.124-5.8576-8.2087-5.8576h-3.9253l-4.4615 14.556h-12.67zm7.8506 15.707h5.2627c6.9583 0 12.045-2.5717 12.045-6.1854 0-2.9541-4.0143-4.2672-9.188-4.2672-2.4098 0-3.9253 0.10932-4.9997 0.27517z"/></g></g></svg>
