<svg xmlns="http://www.w3.org/2000/svg" width="53.518" height="37.463" viewBox="0 0 85.199 56.799">
    <path id="Icon_awesome-newspaper" data-name="Icon awesome-newspaper" d="M81.649,4.5H13.016a3.55,3.55,0,0,0-3.55,3.55V9.233H3.55A3.55,3.55,0,0,0,0,12.783V53.016A8.283,8.283,0,0,0,8.283,61.3H78.1a7.1,7.1,0,0,0,7.1-7.1V8.05A3.55,3.55,0,0,0,81.649,4.5ZM8.283,54.2A1.183,1.183,0,0,1,7.1,53.016V16.333H9.467V53.016A1.183,1.183,0,0,1,8.283,54.2Zm34.908-2.367H20.708a1.775,1.775,0,0,1-1.775-1.775V48.874A1.775,1.775,0,0,1,20.708,47.1H43.191a1.775,1.775,0,0,1,1.775,1.775v1.183A1.775,1.775,0,0,1,43.191,51.833Zm30.766,0H51.474A1.775,1.775,0,0,1,49.7,50.058V48.874A1.775,1.775,0,0,1,51.474,47.1H73.957a1.775,1.775,0,0,1,1.775,1.775v1.183A1.775,1.775,0,0,1,73.957,51.833Zm-30.766-14.2H20.708a1.775,1.775,0,0,1-1.775-1.775V34.675A1.775,1.775,0,0,1,20.708,32.9H43.191a1.775,1.775,0,0,1,1.775,1.775v1.183A1.775,1.775,0,0,1,43.191,37.633Zm30.766,0H51.474A1.775,1.775,0,0,1,49.7,35.858V34.675A1.775,1.775,0,0,1,51.474,32.9H73.957a1.775,1.775,0,0,1,1.775,1.775v1.183A1.775,1.775,0,0,1,73.957,37.633Zm0-14.2H20.708a1.775,1.775,0,0,1-1.775-1.775V15.742a1.775,1.775,0,0,1,1.775-1.775H73.957a1.775,1.775,0,0,1,1.775,1.775v5.917A1.775,1.775,0,0,1,73.957,23.433Z" transform="translate(0 -4.5)" fill="#f2d658"/>
</svg>