<svg className="svgIcon" xmlns="http://www.w3.org/2000/svg" width="49.438" height="54.637" viewBox="0 0 49.438 54.637">
  <path id="Icon_simple-tesla" data-name="Icon simple-tesla" d="M24.719,12.207l5.1-6.889a44.892,44.892,0,0,1,17.45,4.676,15.619,15.619,0,0,1-6.656,5.55c-.3-3.276-2.377-4.075-8.969-4.075L24.719,54.637,17.755,11.46c-6.551,0-8.627.806-8.93,4.08a15.537,15.537,0,0,1-6.652-5.532A44.886,44.886,0,0,1,19.621,5.327l5.1,6.88-.008,0h.008Zm0-8.876A52,52,0,0,1,48.054,8.521a22.133,22.133,0,0,0,1.384-3.176A61.916,61.916,0,0,0,24.719,0,61.805,61.805,0,0,0,0,5.348,28.373,28.373,0,0,0,1.384,8.526a52.056,52.056,0,0,1,23.335-5.2v.007Z" fill="#fff"/>
</svg>